<svg xmlns="http://www.w3.org/2000/svg" viewBox="0 0 1200 600" style="background-color: #FFF">
  <g id="Livello_1" transform="matrix(0.691969, 0, 0, 0.691969, 300.22171, 73.007156)" style="">
    <path class="cls-1" d="M 439.815 244.794 C 425.705 244.794 411.365 244.834 396.985 244.884 L 394.465 244.884 C 386.825 244.884 379.145 244.884 371.455 244.924 L 368.895 244.924 C 355.865 244.964 331.285 244.964 310.565 245.014 L 308.005 245.014 C 298.975 245.054 290.795 245.054 284.815 245.054 L 283.245 245.054 C 282.845 245.054 282.525 245.014 282.165 245.014 C 281.675 245.014 281.175 245.014 280.685 245.054 L 257.455 245.054 C 256.605 245.054 255.705 245.054 254.845 245.094 C 202.855 245.184 154.315 245.224 115.405 245.134 C 115.405 245.134 115.375 245.134 115.315 245.134 C 115.315 245.134 115.275 245.174 115.225 245.134 C 105.515 245.174 96.445 245.174 88.035 245.134 C 71.995 245.134 58.515 245.094 48.265 245.044 C 98.015 196.014 155.805 157.554 218.985 131.034 C 219.655 130.724 220.335 130.454 221.005 130.184 C 227.345 127.534 233.765 124.974 240.235 122.594 C 240.905 122.324 241.585 122.104 242.305 121.874 C 278.485 108.574 316.225 99.094 355.105 93.654 C 362.155 106.284 370.155 120.524 378.785 136.034 L 378.825 136.034 C 386.555 149.874 394.865 164.754 403.585 180.294 C 404.035 181.054 404.485 181.824 404.885 182.634 C 408.755 189.464 412.655 196.434 416.655 203.534 C 417.055 204.294 417.505 205.104 417.955 205.874 C 425.055 218.544 432.375 231.574 439.795 244.794 L 439.815 244.794 Z M 324.465 269.784 L 321.905 269.784 C 314.135 269.784 306.405 269.784 298.715 269.824 L 296.105 269.824 C 241.725 269.914 189.965 269.954 147.355 269.954 C 124.255 269.954 103.855 269.914 87.225 269.864 C 67.545 269.824 40.305 269.774 24.805 269.644 C 13.035 282.724 1.845 296.384 -8.765 310.714 L -21.525 327.924 L -11.815 341.274 C -0.225 357.224 12.095 372.414 25.125 386.844 C 25.705 387.604 26.425 388.324 27.145 389.094 C 33.395 396.064 39.905 402.804 46.515 409.404 C 47.275 410.124 48.045 410.884 48.805 411.654 C 98.285 460.274 155.845 498.524 218.765 524.984 C 225.105 513.074 232.295 499.724 240.115 485.164 C 251.935 463.014 265.235 438.204 279.345 411.824 C 279.795 411.064 280.195 410.294 280.605 409.534 C 284.155 402.884 287.795 396.144 291.435 389.314 C 291.835 388.594 292.245 387.834 292.645 387.064 C 303.655 366.524 315.025 345.364 326.485 323.974 C 326.885 323.214 327.295 322.404 327.745 321.634 C 331.525 314.574 335.295 307.474 339.115 300.424 C 339.515 299.664 339.965 298.854 340.325 298.084 C 345.445 288.604 350.525 279.124 355.605 269.724 C 345.175 269.724 334.795 269.724 324.465 269.764 L 324.465 269.784 Z M 438.245 522.824 C 434.195 515.674 430.115 508.354 425.975 500.984 C 425.525 500.224 425.125 499.454 424.675 498.694 C 420.805 491.814 416.905 484.854 412.905 477.794 C 412.505 477.034 412.055 476.264 411.605 475.454 C 399.835 454.514 387.785 433.074 375.745 411.644 C 375.345 410.924 374.895 410.164 374.485 409.394 C 370.715 402.654 366.895 395.914 363.115 389.174 C 362.665 388.414 362.265 387.644 361.815 386.924 C 354.755 374.344 347.745 361.844 340.825 349.534 C 334.085 362.164 327.385 374.654 320.735 387.014 C 320.335 387.774 319.925 388.494 319.565 389.264 C 315.885 396.054 312.285 402.794 308.735 409.484 C 308.285 410.244 307.885 411.014 307.475 411.774 C 291.705 441.164 276.735 469.114 263.435 494.014 C 255.665 508.484 248.425 521.964 241.955 534.104 C 281.095 548.484 322.125 558.464 364.415 563.624 C 365.175 563.714 365.985 563.804 366.795 563.894 C 374.035 564.744 381.305 565.464 388.635 566.054 C 389.445 566.144 390.255 566.184 391.065 566.234 C 404.185 567.224 417.395 567.764 430.695 567.804 L 433.345 567.804 C 443.325 567.804 453.255 567.534 463.095 566.994 C 455.185 552.924 446.875 538.144 438.245 522.824 Z M 750.885 411.064 C 668.335 411.064 587.175 411.154 561.745 411.194 L 561.705 411.194 C 560.855 411.194 560.045 411.194 559.185 411.234 C 551.685 411.234 543.905 411.234 535.955 411.274 L 533.395 411.274 C 514.615 411.314 494.705 411.364 474.035 411.404 L 471.475 411.404 C 463.925 411.404 456.245 411.444 448.465 411.444 C 447.615 411.444 446.755 411.444 445.905 411.484 C 432.155 411.484 418.175 411.524 404.065 411.574 C 411.215 424.294 418.355 436.964 425.455 449.544 L 425.455 449.584 C 425.905 450.394 426.355 451.114 426.805 451.874 L 426.805 451.914 C 430.715 458.924 434.665 465.894 438.535 472.814 L 438.535 472.854 C 438.985 473.614 439.385 474.334 439.835 475.104 C 448.775 491.054 457.585 506.694 466.075 521.794 C 474.525 536.754 482.655 551.224 490.345 564.894 C 530.165 560.894 568.895 552.674 606.155 540.444 C 606.875 540.224 607.595 539.994 608.315 539.724 C 614.835 537.614 621.305 535.324 627.725 532.894 C 628.445 532.624 629.115 532.354 629.835 532.134 C 699.935 505.484 763.935 464.504 818.265 410.984 C 796.425 410.944 773.595 410.984 750.905 411.024 L 750.885 411.064 Z M 878.285 314.854 C 866.555 298.764 854.155 283.484 841.075 268.974 C 840.405 268.214 839.725 267.444 839.005 266.724 C 832.715 259.754 826.245 253.014 819.635 246.504 C 818.875 245.694 818.105 244.934 817.345 244.254 C 762.965 190.824 698.885 149.974 628.645 123.504 C 621.995 135.864 614.755 149.254 607.075 163.504 C 593.685 188.444 578.895 215.904 563.575 244.484 L 563.535 244.484 C 563.135 245.244 562.775 245.964 562.365 246.734 C 558.725 253.434 555.135 260.214 551.445 267.004 C 551.045 267.764 550.635 268.534 550.235 269.294 C 539.225 289.784 528.035 310.634 516.845 331.444 C 516.445 332.254 516.035 333.014 515.585 333.784 C 511.805 340.884 508.035 347.944 504.265 354.954 C 503.865 355.764 503.415 356.524 503.005 357.294 C 497.705 367.184 492.445 376.974 487.275 386.684 C 498.235 386.644 509.025 386.644 519.495 386.594 L 522.055 386.594 C 529.965 386.594 537.735 386.554 545.285 386.554 L 547.845 386.554 C 586.445 386.464 685.985 386.334 779.095 386.284 C 800.625 386.244 821.785 386.244 841.825 386.244 C 853.555 373.254 864.695 359.644 875.255 345.394 L 887.975 328.184 L 878.265 314.884 L 878.285 314.854 Z M 480.265 90.204 C 479.455 90.164 478.645 90.074 477.835 90.024 C 470.425 89.444 462.965 88.994 455.505 88.724 C 454.695 88.684 453.845 88.634 452.985 88.634 C 447.275 88.414 441.525 88.324 435.775 88.274 L 433.125 88.274 C 415.865 88.274 398.745 89.034 381.805 90.614 C 388.955 103.464 397.085 118.024 405.985 133.934 C 409.715 140.544 413.535 147.414 417.535 154.474 C 417.935 155.234 418.385 156.004 418.835 156.814 L 418.835 156.854 C 422.655 163.644 426.565 170.604 430.565 177.754 C 431.015 178.514 431.415 179.324 431.865 180.094 C 443.365 200.634 455.595 222.384 468.135 244.714 C 468.585 245.474 468.985 246.244 469.395 246.964 C 473.165 253.664 476.945 260.404 480.765 267.184 C 481.215 267.944 481.615 268.714 482.065 269.474 C 488.855 281.564 495.685 293.694 502.515 305.874 C 509.035 293.694 515.595 281.514 522.105 269.384 C 522.505 268.574 522.955 267.814 523.365 267.044 C 527.005 260.254 530.595 253.514 534.195 246.824 C 534.595 246.064 535.005 245.344 535.405 244.574 C 552.125 213.384 568.395 183.184 583.265 155.554 C 590.905 141.354 598.185 127.874 604.965 115.244 C 564.975 102.214 523.175 93.804 480.265 90.214 L 480.265 90.204 Z" style="fill: rgb(29, 29, 27); stroke-width: 0;"></path>
  </g>
</svg>