<svg xmlns="http://www.w3.org/2000/svg" viewBox="0 0 500 500" xmlns:bx="https://boxy-svg.com">
  <g id="Layer_1" style="" transform="matrix(0.252361, 0, 0, 0.252361, 251.04155, 211.345535)">
    <bx:title>Flyway</bx:title>
    <g style="" transform="matrix(2.884286, 0, 0, 2.884286, -187.83316, 281.784424)">
      <path class="cls-1" d="M -16.906 62.508 C -11.333 54.024 -8.059 44.238 -7.406 34.108 L -52.006 43.308 C -53.654 43.623 -55.328 43.79 -57.006 43.808 C -76.325 43.471 -88.034 22.347 -78.083 5.785 C -74.538 -0.115 -68.725 -4.3 -62.006 -5.792 L 39.194 -26.592 C 54.81 -29.807 68.512 -39.086 77.294 -52.392 C 82.917 -60.985 86.287 -70.854 87.094 -81.092 L 42.294 -71.892 C 40.646 -71.577 38.972 -71.41 37.294 -71.392 C 25.313 -71.36 14.995 -79.834 12.694 -91.592 C 9.994 -105.19 19.194 -118.29 32.794 -121.09 L 132.794 -141.59 C 152.294 -145.59 163.694 -161.59 168.794 -170.69 C 173.297 -178.87 176.342 -187.77 177.794 -196.99 L -136.81 -132.39 L -136.81 105.408 L -56.006 88.808 C -40.002 85.57 -25.938 76.111 -16.906 62.508 Z" style="fill: rgb(204, 0, 0); stroke-width: 1;"></path>
      <path class="cls-1" d="M 63.694 -312.09 C -24.306 -312.09 -101.21 -294.29 -136.91 -268.69 L -136.91 -183.59 L 208.094 -254.39 C 215.405 -255.87 222.542 -251.19 224.094 -243.89 L 226.394 -232.59 C 232.194 -204.29 227.194 -172.89 212.494 -146.39 C 196.494 -117.59 171.694 -98.492 142.594 -92.492 L 137.094 -91.392 C 138.45 -67.356 131.804 -43.549 118.194 -23.692 C 101.894 0.508 76.494 16.808 47.994 22.708 L 42.694 23.808 C 45.569 78.268 8.283 126.681 -45.106 137.808 L -136.91 156.608 L -136.91 179.408 C -101.21 205.108 -24.306 222.908 63.694 222.908 C 151.694 222.908 228.594 205.108 264.294 179.408 L 264.294 -268.69 C 228.594 -294.29 151.694 -312.09 63.694 -312.09 Z" style="fill: rgb(204, 0, 0); stroke-width: 1;"></path>
    </g>
  </g>
</svg>