<svg xmlns="http://www.w3.org/2000/svg" viewBox="0 0 1200 600" style="background-color: #FFF">
  <g transform="matrix(3.071353, 0, 0, 3.071353, -46.173771, 15.686473)">
    <g id="SvgjsG2050" transform="matrix(0.690681, 0, 0, 0.690681, 76.504967, 111.62233)" fill="#000000">
      <path d="M 117.446 -36.973 C 117.806 -36.973 118.566 -36.813 118.566 -35.573 L 118.566 -32.413 C 118.566 -31.173 117.806 -31.013 117.446 -31.013 L 104.246 -31.013 C 102.486 -31.013 100.966 -31.253 99.766 -31.693 C 98.486 -32.133 97.446 -32.893 96.646 -33.933 C 95.846 -34.933 95.286 -36.253 94.926 -37.853 C 94.566 -39.413 94.366 -41.333 94.366 -43.573 L 94.366 -62.613 C 94.366 -63.893 95.166 -64.013 95.526 -64.013 L 99.206 -64.013 C 99.526 -64.013 100.326 -63.893 100.326 -62.613 L 100.326 -42.893 C 100.326 -41.693 100.366 -40.693 100.526 -39.893 C 100.646 -39.173 100.886 -38.573 101.206 -38.133 C 101.486 -37.693 101.886 -37.413 102.366 -37.253 C 102.926 -37.053 103.606 -36.973 104.446 -36.973 L 117.446 -36.973 Z M 151.975 -50.613 C 152.295 -50.613 153.095 -50.453 153.095 -49.213 L 153.095 -46.053 C 153.095 -44.813 152.295 -44.693 151.975 -44.693 L 134.095 -44.693 C 134.055 -44.693 134.015 -32.413 134.015 -32.413 C 134.015 -31.173 133.215 -31.013 132.895 -31.013 L 129.215 -31.013 C 128.895 -31.013 128.095 -31.173 128.095 -32.413 L 128.175 -47.853 C 128.255 -48.213 128.415 -48.573 128.575 -48.893 C 129.175 -49.853 130.175 -50.493 131.335 -50.573 L 151.975 -50.613 Z M 152.175 -64.013 C 152.495 -64.013 153.295 -63.893 153.295 -62.613 L 153.295 -59.453 C 153.295 -58.213 152.495 -58.093 152.175 -58.093 L 129.175 -58.093 C 128.855 -58.093 128.095 -58.253 128.095 -59.493 L 128.095 -62.573 C 128.095 -63.853 128.855 -64.013 129.175 -64.013 L 152.175 -64.013 Z M 187.264 -64.013 C 187.584 -64.013 188.384 -63.853 188.384 -62.613 L 188.384 -59.533 C 188.384 -58.253 187.584 -58.093 187.264 -58.093 L 172.904 -58.093 C 172.064 -58.093 171.344 -58.013 170.824 -57.813 C 170.304 -57.653 169.944 -57.373 169.624 -56.933 C 169.304 -56.493 169.104 -55.933 168.944 -55.173 C 168.824 -54.413 168.744 -53.413 168.744 -52.213 L 168.744 -42.893 C 168.744 -41.693 168.824 -40.693 168.944 -39.893 C 169.104 -39.133 169.304 -38.533 169.624 -38.133 C 169.944 -37.693 170.304 -37.413 170.824 -37.253 C 171.344 -37.053 172.064 -36.973 172.904 -36.973 L 187.264 -36.973 C 187.584 -36.973 188.384 -36.813 188.384 -35.573 L 188.384 -32.413 C 188.384 -31.173 187.584 -31.013 187.264 -31.013 L 172.704 -31.013 C 170.944 -31.013 169.424 -31.253 168.184 -31.693 C 166.944 -32.133 165.904 -32.893 165.104 -33.893 C 164.304 -34.933 163.704 -36.253 163.344 -37.813 C 162.984 -39.413 162.824 -41.333 162.824 -43.573 L 162.824 -51.493 C 162.824 -53.693 162.984 -55.613 163.344 -57.173 C 163.704 -58.773 164.304 -60.093 165.104 -61.093 C 165.864 -62.093 166.904 -62.853 168.184 -63.333 C 169.424 -63.773 170.944 -64.013 172.704 -64.013 L 187.264 -64.013 Z" style="transform-box: fill-box; transform-origin: 50% 50%;"></path>
    </g>
    <g id="SvgjsG2051" transform="matrix(0.46621, 0, 0, 0.46621, 212.314743, 15.25839)" fill="#0ff">
      <g xmlns="http://www.w3.org/2000/svg" transform="translate(0,-952.36218)">
        <path style="text-indent: 0px; text-transform: none; direction: ltr; baseline-shift: baseline;" d="M 13.541 1099.475 C 9.38 1099.475 6 1102.867 6 1107.044 C 6 1111.221 9.38 1114.649 13.541 1114.649 C 14.354 1114.649 15.155 1114.513 15.924 1114.257 C 28.205 1133.156 52.574 1137.517 70.417 1127.289 C 70.938 1126.989 71.142 1126.241 70.844 1125.718 C 70.546 1125.194 69.8 1124.99 69.279 1125.289 C 52.506 1134.904 29.608 1130.918 17.951 1113.185 C 19.846 1111.804 21.082 1109.566 21.082 1107.044 C 21.082 1102.867 17.702 1099.475 13.541 1099.475 Z" fill-opacity="1" fill-rule="evenodd" stroke="none" visibility="visible" display="inline" overflow="visible"></path>
        <path style="text-indent: 0px; text-transform: none; direction: ltr; baseline-shift: baseline;" d="M 70.417 1056.88 C 69.466 1057.001 69.18 1058.57 70.026 1059.022 C 83.456 1067.241 90.955 1083.324 87.669 1099.582 C 87.276 1099.515 86.867 1099.475 86.459 1099.475 C 82.298 1099.475 78.918 1102.867 78.918 1107.044 C 78.918 1111.221 82.298 1114.649 86.459 1114.649 C 90.62 1114.649 94 1111.221 94 1107.044 C 94 1104.093 92.313 1101.534 89.838 1100.296 C 93.446 1083.005 85.507 1065.814 71.2 1057.059 C 71.01 1056.937 70.784 1056.874 70.559 1056.88 C 70.511 1056.877 70.465 1056.877 70.417 1056.88 L 70.417 1056.88 Z" fill-opacity="1" fill-rule="evenodd" stroke="none" visibility="visible" display="inline" overflow="visible"></path>
        <path style="text-indent: 0px; text-transform: none; direction: ltr; baseline-shift: baseline;" d="M 50 1044.669 C 45.988 1044.669 42.726 1047.839 42.495 1051.81 C 25.298 1055.004 12.767 1068.663 9.913 1084.872 C 9.726 1085.731 10.536 1086.472 11.371 1086.204 C 11.791 1086.07 12.096 1085.704 12.154 1085.265 C 14.835 1070.04 26.542 1057.194 42.672 1054.095 C 43.499 1057.38 46.475 1059.808 50 1059.808 C 54.161 1059.808 57.541 1056.416 57.541 1052.238 C 57.541 1048.061 54.161 1044.669 50 1044.669 Z" fill-opacity="1" fill-rule="evenodd" stroke="none" visibility="visible" display="inline" overflow="visible"></path>
      </g>
    </g>
    <g id="SvgjsG2052" transform="matrix(0.681593, 0, 0, 0.681593, 67.028221, 99.555229)" fill="#000000">
      <path d="M46.489000000000004 7.039999999999999 c2.72 0 4.68 0.84 5.88 2.56 c1.16 1.6 1.72 3.92 1.76 7 c0 3.16 -0.56 5.56 -1.76 7.24 s-3.16 2.52 -5.88 2.52 l-13.68 0.04 l0 12.24 c0 1.24 -0.8 1.4 -1.12 1.4 l-3.68 0 c-0.32 0 -1.12 -0.16 -1.12 -1.4 l0 -16.8 c0 -1.24 0.8 -1.36 1.12 -1.36 l17.44 0 c1 0 1.72 -0.28 2.12 -0.88 c0.44 -0.6 0.64 -1.56 0.64 -2.88 s-0.2 -2.28 -0.64 -2.88 c-0.4 -0.6 -1.12 -0.88 -2.12 -0.88 l-17.44 0 c-0.32 0 -1.12 -0.12 -1.12 -1.36 l0 -3.16 c0 -1.28 0.8 -1.4 1.12 -1.4 l18.48 0 z M86.738 34.08 c0.36 0 1.12 0.16 1.12 1.4 l0 3.16 c0 1.24 -0.76 1.4 -1.12 1.4 l-13.2 0 c-1.76 0 -3.28 -0.24 -4.48 -0.68 c-1.28 -0.44 -2.32 -1.2 -3.12 -2.24 c-0.8 -1 -1.36 -2.32 -1.72 -3.92 c-0.36 -1.56 -0.56 -3.48 -0.56 -5.72 l0 -19.04 c0 -1.28 0.8 -1.4 1.16 -1.4 l3.68 0 c0.32 0 1.12 0.12 1.12 1.4 l0 19.72 c0 1.2 0.04 2.2 0.2 3 c0.12 0.72 0.36 1.32 0.68 1.76 c0.28 0.44 0.68 0.72 1.16 0.88 c0.56 0.2 1.24 0.28 2.08 0.28 l13 0 z M118.827 10.760000000000002 l11.24 27.72 c0.16 0.36 0.2 0.72 0.12 0.96 c-0.08 0.2 -0.24 0.6 -0.88 0.6 l-4.28 0 c-0.56 0 -0.96 -0.32 -1.16 -0.88 l-9.92 -24.76 l-0.04 -0.08 l-0.16 0 s-0.04 0.04 -0.08 0.12 l-5.12 12.96 l4.96 0 c0.52 0 0.96 0.32 1.16 0.8 l1.44 3.56 c0.12 0.4 0.08 0.84 -0.16 1.16 c-0.2 0.36 -0.6 0.56 -1.04 0.56 l-8.76 0 l-2.28 5.72 c-0.2 0.52 -0.6 0.84 -1.12 0.84 l-4.4 0 c-0.64 0 -0.84 -0.36 -0.88 -0.6 c-0.08 -0.24 -0.04 -0.6 0.08 -0.96 l11.16 -27.72 c0.56 -1.44 1.16 -2.4 1.76 -2.92 c0.16 -0.12 0.36 -0.28 0.6 -0.4 c0.8 -0.56 1.76 -0.84 2.76 -0.84 c2.2 0 4.12 1.48 4.76 3.56 z M163.796 7.039999999999999 c0.32 0 0.6 0.2 0.72 0.52 c0.08 0.32 0.04 0.64 -0.12 0.92 l-12.12 21.4 l0 8.76 c0 1.24 -0.8 1.36 -1.12 1.36 l-3.68 0 c-0.32 0 -1.12 -0.12 -1.12 -1.36 l0 -8.76 l-12 -21.4 c-0.16 -0.28 -0.2 -0.6 -0.12 -0.88 c0.08 -0.36 0.36 -0.56 0.72 -0.56 l4.56 0 c0.36 0 0.84 0.12 1.16 0.76 l8.72 16 l8.8 -16.04 c0.32 -0.6 0.8 -0.72 1.16 -0.72 l4.44 0 z M201.165 7.039999999999999 c0.32 0 1.12 0.16 1.12 1.4 l0 3.12 c0 1.28 -0.8 1.4 -1.12 1.4 l-17 0 c-0.84 0 -1.56 0.12 -2.08 0.28 c-0.52 0.2 -0.88 0.48 -1.2 0.88 c-0.28 0.44 -0.52 1.04 -0.64 1.76 c-0.16 0.8 -0.24 1.8 -0.24 3 l0 9.28 c0 1.2 0.08 2.2 0.24 3 c0.12 0.76 0.36 1.36 0.64 1.76 c0.32 0.44 0.68 0.72 1.2 0.88 c0.52 0.2 1.24 0.28 2.08 0.28 l11.2 0 c0.44 0 0.76 -0.12 0.96 -0.44 c0.16 -0.24 0.36 -0.76 0.36 -2 l-0.04 -5.6 l-9.96 0 c-0.32 0 -1.12 -0.12 -1.12 -1.44 l0 -3.04 c0 -1.28 0.8 -1.44 1.12 -1.44 l14.16 0 c0.52 0 1.4 0.24 1.4 1.76 l0 10.72 c0 2.68 -0.4 4.56 -1.16 5.68 c-0.8 1.16 -1.96 1.76 -3.44 1.76 l-13.68 0 c-1.76 0 -3.28 -0.24 -4.52 -0.68 s-2.28 -1.2 -3.08 -2.2 c-0.8 -1.04 -1.4 -2.36 -1.76 -3.92 c-0.36 -1.6 -0.52 -3.52 -0.52 -5.76 l0 -7.92 c0 -2.2 0.16 -4.12 0.52 -5.68 c0.36 -1.6 0.96 -2.88 1.76 -3.92 c0.76 -1 1.84 -1.76 3.08 -2.24 c1.24 -0.44 2.76 -0.68 4.52 -0.68 l17.2 0 z M239.85399999999998 38.28 c0.16 0.24 0.2 0.56 0.16 0.96 c-0.08 0.48 -0.44 0.8 -0.92 0.8 l-4.4 0 c-0.36 0 -0.64 -0.08 -0.84 -0.24 c-0.16 -0.12 -0.28 -0.32 -0.44 -0.56 l-7.24 -12.84 l-8.44 0 l0 12.24 c0 1.24 -0.76 1.4 -1.12 1.4 l-3.64 0 c-0.36 0 -1.16 -0.16 -1.16 -1.4 l0 -16.8 c0 -1.24 0.8 -1.36 1.16 -1.36 l17.4 0 c1.04 0 1.72 -0.28 2.12 -0.88 c0.44 -0.6 0.64 -1.56 0.64 -2.88 s-0.2 -2.28 -0.64 -2.88 c-0.4 -0.6 -1.08 -0.88 -2.12 -0.88 l-17.4 0 c-0.36 0 -1.16 -0.12 -1.16 -1.36 l0 -3.16 c0 -1.28 0.8 -1.4 1.16 -1.4 l18.44 0 c2.72 0 4.72 0.84 5.92 2.56 c1.08 1.64 1.68 3.96 1.76 7 l0 0.24 c-0.08 3.08 -0.68 5.4 -1.76 7 c-1 1.36 -2.52 2.2 -4.48 2.44 z M276.823 9.96 c0.8 1 1.36 2.32 1.72 3.92 c0.32 1.56 0.52 3.48 0.52 5.68 l0 7.92 c0 2.24 -0.2 4.16 -0.52 5.72 c-0.36 1.6 -0.92 2.92 -1.72 3.96 c-0.8 1 -1.84 1.76 -3.12 2.2 c-1.24 0.44 -2.76 0.68 -4.52 0.68 l-9.76 0 c-1.76 0 -3.28 -0.24 -4.48 -0.68 c-1.28 -0.44 -2.32 -1.2 -3.12 -2.24 c-0.76 -1 -1.36 -2.32 -1.72 -3.92 c-0.36 -1.56 -0.52 -3.48 -0.52 -5.72 l0 -7.92 c0 -2.24 0.16 -4.12 0.52 -5.68 c0.36 -1.6 0.96 -2.92 1.72 -3.92 c0.8 -1 1.84 -1.76 3.12 -2.24 c1.24 -0.44 2.72 -0.68 4.48 -0.68 l9.76 0 c1.76 0 3.28 0.24 4.52 0.68 c1.28 0.48 2.32 1.24 3.12 2.24 z M273.10299999999995 18.88 c0 -1.16 -0.04 -2.16 -0.2 -2.96 c-0.12 -0.76 -0.36 -1.36 -0.68 -1.8 c-0.28 -0.4 -0.68 -0.68 -1.2 -0.88 c-0.52 -0.16 -1.2 -0.28 -2.04 -0.28 l-9.36 0 c-0.84 0 -1.52 0.12 -2.04 0.28 c-0.52 0.2 -0.92 0.48 -1.2 0.88 c-0.32 0.44 -0.52 1.04 -0.68 1.8 c-0.12 0.8 -0.2 1.8 -0.2 2.96 l0 9.32 c0 1.16 0.08 2.16 0.2 2.96 c0.16 0.72 0.36 1.36 0.68 1.76 c0.28 0.44 0.68 0.72 1.2 0.88 c0.52 0.2 1.2 0.28 2.04 0.28 l9.36 0 c0.84 0 1.52 -0.08 2.04 -0.28 c0.52 -0.16 0.92 -0.44 1.2 -0.88 c0.32 -0.4 0.56 -1.04 0.68 -1.76 c0.16 -0.8 0.2 -1.8 0.2 -2.96 l0 -9.32 z M316.23199999999997 7.039999999999999 c0.36 0 1.12 0.12 1.12 1.36 l0 19.08 c0 2.24 -0.16 4.16 -0.52 5.72 c-0.36 1.6 -0.92 2.92 -1.72 3.92 c-0.8 1.04 -1.84 1.76 -3.12 2.24 c-1.24 0.44 -2.76 0.64 -4.52 0.64 l-9 0 c-1.76 0 -3.28 -0.2 -4.52 -0.64 c-1.24 -0.48 -2.32 -1.2 -3.08 -2.24 c-0.8 -1 -1.4 -2.32 -1.76 -3.92 c-0.36 -1.56 -0.52 -3.48 -0.52 -5.72 l0 -19.08 c0 -1.24 0.8 -1.36 1.16 -1.36 l3.64 0 c0.36 0 1.12 0.12 1.12 1.36 l0 19.72 c0 1.2 0.08 2.24 0.2 3 c0.16 0.76 0.4 1.36 0.68 1.8 c0.32 0.4 0.68 0.68 1.2 0.88 c0.52 0.16 1.24 0.28 2.08 0.28 l8.64 0 c0.84 0 1.56 -0.12 2.08 -0.28 c0.52 -0.2 0.88 -0.48 1.2 -0.88 c0.28 -0.44 0.52 -1.04 0.64 -1.8 s0.2 -1.8 0.2 -3 l0 -19.72 c0 -1.24 0.76 -1.36 1.12 -1.36 l3.68 0 z M355.20099999999996 7.039999999999999 c0.32 0 1.12 0.12 1.12 1.4 l0 26.44 c0 1.96 -0.28 3.28 -0.84 4 c-0.56 0.76 -1.44 1.16 -2.6 1.16 l-2.92 0 c-0.56 0 -1 -0.04 -1.36 -0.12 c-0.4 -0.08 -0.76 -0.2 -1.08 -0.44 c-0.32 -0.2 -0.6 -0.48 -0.88 -0.88 c-0.28 -0.36 -0.6 -0.84 -0.92 -1.48 l-12.68 -22.48 c-0.08 -0.12 -0.12 -0.12 -0.12 -0.12 l-0.2 0 l0 24.12 c0 1.24 -0.76 1.4 -1.12 1.4 l-3.56 0 c-0.36 0 -1.16 -0.16 -1.16 -1.4 l0 -26.44 c0 -1.96 0.28 -3.28 0.84 -4.04 c0.56 -0.72 1.44 -1.12 2.6 -1.12 l3 0 c0.52 0 1 0.04 1.4 0.08 c0.44 0.08 0.8 0.24 1.12 0.48 c0.28 0.2 0.56 0.52 0.84 0.92 c0.28 0.36 0.56 0.84 0.88 1.44 l12.64 22.48 c0.04 0.12 0.08 0.12 0.12 0.12 l0.2 0 l0 -24.12 c0 -1.28 0.76 -1.4 1.12 -1.4 l3.56 0 z M393.16999999999996 14.48 c0.4 1.68 0.6 3.68 0.6 5.92 l0 6.28 c0 2.24 -0.2 4.24 -0.6 5.92 s-1.08 3.08 -1.92 4.16 c-0.88 1.12 -2.04 1.96 -3.4 2.48 c-1.32 0.52 -2.96 0.8 -4.84 0.8 l-13.68 0 c-1.24 0 -2.4 -0.64 -3.04 -1.72 c-0.2 -0.36 -0.36 -0.8 -0.44 -1.24 l0.04 -27.32 c0.08 -0.32 0.24 -0.68 0.4 -1 c0.6 -0.96 1.6 -1.6 2.76 -1.68 l0 -0.04 l13.96 0 c1.88 0 3.48 0.28 4.84 0.8 s2.52 1.36 3.4 2.44 c0.84 1.12 1.52 2.52 1.92 4.2 z M371.72999999999996 33.88 c0 0.16 0.04 0.2 0.04 0.2 l11.12 0 c0.92 0 1.72 -0.08 2.36 -0.32 s1.12 -0.6 1.48 -1.08 c0.4 -0.52 0.68 -1.2 0.84 -2.08 s0.28 -2 0.28 -3.32 l0 -7.48 c0 -1.32 -0.12 -2.44 -0.28 -3.36 c-0.16 -0.84 -0.44 -1.52 -0.84 -2.04 c-0.36 -0.52 -0.84 -0.84 -1.48 -1.08 s-1.44 -0.36 -2.36 -0.36 l-11.08 0 c-0.04 0 -0.08 0.08 -0.08 0.24 l0 20.68 z"></path>
    </g>
  </g>
</svg>